<mxfile host="app.diagrams.net" agent="Mozilla/5.0 (Windows NT 10.0; Win64; x64) AppleWebKit/537.36 (KHTML, like Gecko) Chrome/132.0.0.0 Safari/537.36" version="26.0.8">
  <diagram name="Page-1" id="U9sXcKluMdvwRcqEoAim">
    <mxGraphModel dx="1071" dy="576" grid="0" gridSize="10" guides="1" tooltips="1" connect="1" arrows="1" fold="1" page="0" pageScale="1" pageWidth="850" pageHeight="1100" math="0" shadow="0">
      <root>
        <mxCell id="0" />
        <mxCell id="1" parent="0" />
        <mxCell id="pESZE9z4ZKhE7HT6ITkI-22" value="" style="rounded=1;whiteSpace=wrap;html=1;" parent="1" vertex="1">
          <mxGeometry x="161" y="187" width="355" height="266" as="geometry" />
        </mxCell>
        <mxCell id="pESZE9z4ZKhE7HT6ITkI-15" value="" style="endArrow=none;dashed=1;html=1;dashPattern=1 3;strokeWidth=2;rounded=0;" parent="1" source="pESZE9z4ZKhE7HT6ITkI-18" edge="1">
          <mxGeometry width="50" height="50" relative="1" as="geometry">
            <mxPoint x="372" y="223" as="sourcePoint" />
            <mxPoint x="371" y="434" as="targetPoint" />
          </mxGeometry>
        </mxCell>
        <mxCell id="pESZE9z4ZKhE7HT6ITkI-1" value="" style="endArrow=classic;html=1;rounded=0;strokeWidth=2;endFill=1;" parent="1" edge="1">
          <mxGeometry width="50" height="50" relative="1" as="geometry">
            <mxPoint x="194" y="416" as="sourcePoint" />
            <mxPoint x="194" y="216" as="targetPoint" />
          </mxGeometry>
        </mxCell>
        <mxCell id="pESZE9z4ZKhE7HT6ITkI-2" value="" style="endArrow=classic;html=1;rounded=0;strokeWidth=2;endFill=1;" parent="1" edge="1">
          <mxGeometry width="50" height="50" relative="1" as="geometry">
            <mxPoint x="194" y="416" as="sourcePoint" />
            <mxPoint x="474" y="416" as="targetPoint" />
          </mxGeometry>
        </mxCell>
        <mxCell id="pESZE9z4ZKhE7HT6ITkI-3" value="" style="endArrow=none;dashed=1;html=1;dashPattern=1 3;strokeWidth=2;rounded=0;" parent="1" edge="1">
          <mxGeometry width="50" height="50" relative="1" as="geometry">
            <mxPoint x="194" y="336" as="sourcePoint" />
            <mxPoint x="464" y="336" as="targetPoint" />
          </mxGeometry>
        </mxCell>
        <mxCell id="pESZE9z4ZKhE7HT6ITkI-4" value="" style="endArrow=none;html=1;rounded=0;" parent="1" edge="1">
          <mxGeometry width="50" height="50" relative="1" as="geometry">
            <mxPoint x="194" y="366" as="sourcePoint" />
            <mxPoint x="224" y="346" as="targetPoint" />
          </mxGeometry>
        </mxCell>
        <mxCell id="pESZE9z4ZKhE7HT6ITkI-5" value="" style="endArrow=none;html=1;rounded=0;" parent="1" edge="1">
          <mxGeometry width="50" height="50" relative="1" as="geometry">
            <mxPoint x="224" y="346" as="sourcePoint" />
            <mxPoint x="284" y="396" as="targetPoint" />
          </mxGeometry>
        </mxCell>
        <mxCell id="pESZE9z4ZKhE7HT6ITkI-6" value="" style="endArrow=none;html=1;rounded=0;" parent="1" edge="1">
          <mxGeometry width="50" height="50" relative="1" as="geometry">
            <mxPoint x="284" y="396" as="sourcePoint" />
            <mxPoint x="374" y="336" as="targetPoint" />
          </mxGeometry>
        </mxCell>
        <mxCell id="pESZE9z4ZKhE7HT6ITkI-7" value="" style="endArrow=none;html=1;rounded=0;endFill=1;startArrow=classic;startFill=0;" parent="1" edge="1">
          <mxGeometry width="50" height="50" relative="1" as="geometry">
            <mxPoint x="474" y="266" as="sourcePoint" />
            <mxPoint x="374" y="336" as="targetPoint" />
          </mxGeometry>
        </mxCell>
        <mxCell id="pESZE9z4ZKhE7HT6ITkI-8" value="" style="endArrow=none;dashed=1;html=1;dashPattern=1 3;strokeWidth=2;rounded=0;" parent="1" edge="1">
          <mxGeometry width="50" height="50" relative="1" as="geometry">
            <mxPoint x="283" y="223" as="sourcePoint" />
            <mxPoint x="283" y="418" as="targetPoint" />
          </mxGeometry>
        </mxCell>
        <mxCell id="pESZE9z4ZKhE7HT6ITkI-10" value="&lt;font style=&quot;font-size: 9px;&quot;&gt;Complication&lt;/font&gt;" style="text;html=1;align=center;verticalAlign=middle;whiteSpace=wrap;rounded=0;" parent="1" vertex="1">
          <mxGeometry x="209" y="417" width="58" height="16" as="geometry" />
        </mxCell>
        <mxCell id="pESZE9z4ZKhE7HT6ITkI-11" value="&lt;font style=&quot;font-size: 9px;&quot;&gt;Restoration&lt;/font&gt;" style="text;html=1;align=center;verticalAlign=middle;whiteSpace=wrap;rounded=0;" parent="1" vertex="1">
          <mxGeometry x="297" y="417" width="58" height="16" as="geometry" />
        </mxCell>
        <mxCell id="pESZE9z4ZKhE7HT6ITkI-12" value="&lt;font style=&quot;font-size: 9px;&quot;&gt;Improvization&lt;/font&gt;" style="text;html=1;align=center;verticalAlign=middle;whiteSpace=wrap;rounded=0;" parent="1" vertex="1">
          <mxGeometry x="389" y="417" width="58" height="16" as="geometry" />
        </mxCell>
        <mxCell id="pESZE9z4ZKhE7HT6ITkI-16" value="" style="endArrow=none;dashed=1;html=1;dashPattern=1 3;strokeWidth=2;rounded=0;" parent="1" edge="1">
          <mxGeometry width="50" height="50" relative="1" as="geometry">
            <mxPoint x="283" y="223" as="sourcePoint" />
            <mxPoint x="283" y="433" as="targetPoint" />
          </mxGeometry>
        </mxCell>
        <mxCell id="pESZE9z4ZKhE7HT6ITkI-17" value="&lt;font style=&quot;font-size: 6px;&quot;&gt;Progressive &amp;amp; Sustain&lt;/font&gt;" style="text;html=1;align=center;verticalAlign=middle;whiteSpace=wrap;rounded=0;rotation=-35;" parent="1" vertex="1">
          <mxGeometry x="391" y="300" width="64" height="12" as="geometry" />
        </mxCell>
        <mxCell id="pESZE9z4ZKhE7HT6ITkI-20" value="" style="endArrow=none;dashed=1;html=1;dashPattern=1 3;strokeWidth=2;rounded=0;" parent="1" target="pESZE9z4ZKhE7HT6ITkI-18" edge="1">
          <mxGeometry width="50" height="50" relative="1" as="geometry">
            <mxPoint x="372" y="223" as="sourcePoint" />
            <mxPoint x="371" y="434" as="targetPoint" />
          </mxGeometry>
        </mxCell>
        <mxCell id="pESZE9z4ZKhE7HT6ITkI-18" value="" style="ellipse;whiteSpace=wrap;html=1;aspect=fixed;fillColor=#FF1111;strokeWidth=0.5;movable=0;resizable=0;rotatable=0;deletable=0;editable=0;locked=1;connectable=0;" parent="1" vertex="1">
          <mxGeometry x="369" y="334" width="6" height="6" as="geometry" />
        </mxCell>
        <mxCell id="pESZE9z4ZKhE7HT6ITkI-21" value="&lt;font style=&quot;font-size: 6px;&quot;&gt;&lt;b&gt;Critical Point&lt;/b&gt;&lt;/font&gt;" style="text;html=1;align=center;verticalAlign=middle;whiteSpace=wrap;rounded=0;rotation=0;fontStyle=0" parent="1" vertex="1">
          <mxGeometry x="372" y="334" width="48" height="13" as="geometry" />
        </mxCell>
      </root>
    </mxGraphModel>
  </diagram>
</mxfile>
